<svg width="42" height="42" viewBox="0 0 42 42" fill="none" xmlns="http://www.w3.org/2000/svg">
  <rect x="0.5" y="0.5" width="41" height="41" rx="20.5" stroke="#D9D9D9" />
  <path
    fill-rule="evenodd"
    clip-rule="evenodd"
    d="M16.6163 16.6162C16.8506 16.3818 17.2305 16.3818 17.4648 16.6162L24.5868 23.7382L24.502 21.4467C24.4897 21.1156 24.7482 20.8372 25.0793 20.8249C25.4105 20.8126 25.6889 21.0711 25.7011 21.4023L25.8426 25.2207C25.8487 25.3874 25.7852 25.5492 25.6672 25.6671C25.5493 25.7851 25.3875 25.8486 25.2208 25.8425L21.4024 25.701C21.0712 25.6888 20.8127 25.4104 20.825 25.0792C20.8373 24.7481 21.1156 24.4896 21.4468 24.5019L23.7383 24.5867L16.6163 17.4647C16.3819 17.2304 16.3819 16.8505 16.6163 16.6162Z"
    fill="#0A0A0A"
  />
</svg>
