<svg width="48" height="48" viewBox="0 0 48 48" fill="none" xmlns="http://www.w3.org/2000/svg">
  <path
    fill-rule="evenodd"
    clip-rule="evenodd"
    d="M25.214 6.54192L28.114 5.12392C29.452 4.46992 31.07 4.99392 31.768 6.31192L33.282 9.16392C33.682 9.91592 34.406 10.4419 35.246 10.5899L38.426 11.1479C39.894 11.4059 40.892 12.7799 40.684 14.2559L40.232 17.4519C40.112 18.2959 40.39 19.1479 40.982 19.7599L43.226 22.0799C44.262 23.1499 44.262 24.8499 43.226 25.9219L40.982 28.2419C40.39 28.8539 40.112 29.7059 40.232 30.5499L40.684 33.7459C40.892 35.2219 39.894 36.5959 38.426 36.8539L35.246 37.4119C34.406 37.5599 33.682 38.0859 33.282 38.8379L31.768 41.6899C31.07 43.0059 29.454 43.5319 28.114 42.8779L25.214 41.4599C24.448 41.0859 23.554 41.0859 22.788 41.4599L19.888 42.8779C18.55 43.5319 16.932 43.0079 16.234 41.6899L14.72 38.8359C14.32 38.0839 13.596 37.5579 12.756 37.4099L9.57602 36.8519C8.10802 36.5939 7.11002 35.2199 7.31802 33.7439L7.77002 30.5479C7.89002 29.7039 7.61202 28.8519 7.02002 28.2399L4.77602 25.9199C3.74002 24.8499 3.74002 23.1499 4.77602 22.0779L7.02002 19.7579C7.61202 19.1459 7.89002 18.2939 7.77002 17.4499L7.32002 14.2539C7.11002 12.7799 8.11002 11.4039 9.57802 11.1479L12.758 10.5899C13.596 10.4419 14.32 9.91592 14.72 9.16392L16.234 6.31192C16.932 4.99592 18.548 4.46992 19.888 5.12392L22.788 6.54192C23.552 6.91592 24.448 6.91592 25.214 6.54192Z"
    stroke="#0A0A0A"
    stroke-width="2.5"
    stroke-linecap="round"
    stroke-linejoin="round"
  />
  <path
    d="M18 30L30 18"
    stroke="#0A0A0A"
    stroke-width="2.5"
    stroke-linecap="round"
    stroke-linejoin="round"
  />
  <path
    d="M18.498 18C18.222 18 17.998 18.224 18 18.5C18 18.776 18.224 19 18.5 19C18.776 19 19 18.776 19 18.5C19 18.224 18.776 18 18.498 18"
    stroke="#0A0A0A"
    stroke-width="2.5"
    stroke-linecap="round"
    stroke-linejoin="round"
  />
  <path
    d="M29.498 29C29.222 29 28.998 29.224 29 29.5C29 29.776 29.224 30 29.5 30C29.776 30 30 29.776 30 29.5C30 29.224 29.776 29 29.498 29"
    stroke="#0A0A0A"
    stroke-width="2.5"
    stroke-linecap="round"
    stroke-linejoin="round"
  />
</svg>
