<svg width="24" height="24" fill="none" xmlns="http://www.w3.org/2000/svg">
  <path
    fill-rule="evenodd"
    clip-rule="evenodd"
    d="M18.745 5.255a3.6 3.6 0 0 0-5.09 0l-8.4 8.4a3.6 3.6 0 0 0 5.09 5.092v-.001l.596-.6a.9.9 0 0 1 1.277 1.269l-.598.602-.002.002a5.4 5.4 0 0 1-7.636-7.637l8.4-8.4a5.4 5.4 0 0 1 7.641 7.632l-4.146 4.264a3.15 3.15 0 0 1-4.455-4.455l4.141-4.141a.9.9 0 0 1 1.273 1.273l-4.14 4.14A1.35 1.35 0 0 0 14.6 14.61l4.144-4.263a3.6 3.6 0 0 0 0-5.091Z"
    fill="#6E6E6E"
  />
</svg>
