<svg width="59" height="14" viewBox="0 0 59 14" fill="none" xmlns="http://www.w3.org/2000/svg">
  <path
    d="M.656 13V5.944c0-1.056.24-1.992.72-2.808a4.982 4.982 0 0 1 2.04-1.944c.88-.48 1.912-.72 3.096-.72 1.184 0 2.208.24 3.072.72a4.982 4.982 0 0 1 2.04 1.944c.48.816.72 1.752.72 2.808V13H9.608V5.968c0-.624-.144-1.168-.432-1.632a2.936 2.936 0 0 0-1.152-1.104 2.982 2.982 0 0 0-1.536-.408c-.544 0-1.056.136-1.536.408-.464.256-.84.624-1.128 1.104-.272.464-.408 1.008-.408 1.632V13H.656Zm19.968.288c-1.168 0-2.176-.288-3.024-.864a5.754 5.754 0 0 1-1.968-2.304c-.448-.976-.672-2.048-.672-3.216 0-1.216.256-2.304.768-3.264a5.832 5.832 0 0 1 2.232-2.304c.976-.576 2.136-.864 3.48-.864 1.328 0 2.456.288 3.384.864a5.553 5.553 0 0 1 2.16 2.304c.512.96.768 2.032.768 3.216V13h-2.76v-2.28h-.048a5.78 5.78 0 0 1-.936 1.272 4.459 4.459 0 0 1-1.416.936c-.56.24-1.216.36-1.968.36Zm.744-2.352c.72 0 1.344-.176 1.872-.528a3.766 3.766 0 0 0 1.272-1.464c.304-.624.448-1.32.432-2.088 0-.768-.144-1.448-.432-2.04a3.48 3.48 0 0 0-1.224-1.44c-.528-.368-1.16-.552-1.896-.552-.768 0-1.424.184-1.968.552a3.42 3.42 0 0 0-1.248 1.44c-.288.608-.432 1.296-.432 2.064 0 .752.144 1.44.432 2.064a3.653 3.653 0 0 0 1.224 1.464c.544.352 1.2.528 1.968.528ZM31.054 13V5.944c0-1.056.24-1.992.72-2.808a4.982 4.982 0 0 1 2.04-1.944c.88-.48 1.912-.72 3.096-.72 1.184 0 2.208.24 3.072.72a4.982 4.982 0 0 1 2.04 1.944c.48.816.72 1.752.72 2.808V13h-2.736V5.968c0-.624-.144-1.168-.432-1.632a2.936 2.936 0 0 0-1.152-1.104 2.982 2.982 0 0 0-1.536-.408c-.544 0-1.056.136-1.536.408-.464.256-.84.624-1.128 1.104-.272.464-.408 1.008-.408 1.632V13h-2.76Zm20.832.288c-1.264 0-2.384-.28-3.36-.84a6.555 6.555 0 0 1-2.328-2.304c-.56-.976-.84-2.064-.84-3.264 0-1.2.28-2.28.84-3.24a6.305 6.305 0 0 1 2.328-2.304c.976-.576 2.096-.864 3.36-.864 1.248 0 2.36.288 3.336.864a6.179 6.179 0 0 1 2.304 2.28c.576.96.864 2.048.864 3.264 0 1.2-.288 2.288-.864 3.264a6.362 6.362 0 0 1-2.304 2.304c-.976.56-2.088.84-3.336.84Zm0-2.352c.752 0 1.408-.176 1.968-.528.56-.368.992-.856 1.296-1.464.304-.608.456-1.296.456-2.064 0-.752-.152-1.432-.456-2.04a3.495 3.495 0 0 0-1.296-1.464c-.56-.368-1.216-.552-1.968-.552-.768 0-1.432.184-1.992.552a3.767 3.767 0 0 0-1.296 1.44c-.304.608-.456 1.296-.456 2.064 0 .752.152 1.44.456 2.064a3.96 3.96 0 0 0 1.296 1.464c.56.352 1.224.528 1.992.528Z"
    fill="#000"
  />
</svg>
